<?xml version="1.0" encoding="UTF-8"?>
<svg id="Layer_1" xmlns="http://www.w3.org/2000/svg" viewBox="0 0 158.17 169.39">
  <defs>
    <style>
      .cls-1 {
        stroke-width: .06px;
      }

      .cls-1, .cls-2, .cls-3, .cls-4, .cls-5, .cls-6, .cls-7, .cls-8, .cls-9, .cls-10, .cls-11, .cls-12, .cls-13, .cls-14, .cls-15, .cls-16, .cls-17, .cls-18, .cls-19, .cls-20, .cls-21, .cls-22, .cls-23, .cls-24, .cls-25, .cls-26, .cls-27, .cls-28, .cls-29, .cls-30, .cls-31, .cls-32, .cls-33, .cls-34, .cls-35, .cls-36, .cls-37, .cls-38, .cls-39, .cls-40, .cls-41, .cls-42, .cls-43, .cls-44, .cls-45, .cls-46, .cls-47, .cls-48, .cls-49, .cls-50, .cls-51, .cls-52, .cls-53, .cls-54, .cls-55, .cls-56, .cls-57, .cls-58, .cls-59, .cls-60, .cls-61, .cls-62, .cls-63, .cls-64, .cls-65, .cls-66, .cls-67, .cls-68, .cls-69, .cls-70, .cls-71, .cls-72, .cls-73, .cls-74, .cls-75, .cls-76, .cls-77, .cls-78, .cls-79, .cls-80, .cls-81, .cls-82, .cls-83, .cls-84, .cls-85, .cls-86, .cls-87, .cls-88, .cls-89, .cls-90, .cls-91, .cls-92, .cls-93, .cls-94, .cls-95, .cls-96, .cls-97, .cls-98, .cls-99, .cls-100, .cls-101, .cls-102, .cls-103, .cls-104, .cls-105, .cls-106, .cls-107, .cls-108, .cls-109, .cls-110, .cls-111, .cls-112, .cls-113, .cls-114, .cls-115, .cls-116, .cls-117, .cls-118, .cls-119, .cls-120, .cls-121, .cls-122, .cls-123, .cls-124, .cls-125, .cls-126, .cls-127, .cls-128, .cls-129, .cls-130, .cls-131, .cls-132, .cls-133, .cls-134, .cls-135, .cls-136, .cls-137, .cls-138, .cls-139, .cls-140, .cls-141, .cls-142, .cls-143, .cls-144, .cls-145, .cls-146, .cls-147, .cls-148, .cls-149, .cls-150, .cls-151, .cls-152, .cls-153, .cls-154, .cls-155, .cls-156, .cls-157, .cls-158, .cls-159, .cls-160 {
        stroke: #000;
        stroke-miterlimit: 10;
      }

      .cls-1, .cls-2, .cls-161 {
        fill: #262626;
      }

      .cls-162, .cls-139 {
        fill: #525252;
      }

      .cls-163, .cls-16, .cls-134 {
        fill: #181818;
      }

      .cls-2 {
        stroke-width: .06px;
      }

      .cls-3 {
        stroke-width: .06px;
      }

      .cls-4 {
        stroke-width: .06px;
      }

      .cls-4, .cls-164, .cls-129 {
        fill: #252525;
      }

      .cls-5 {
        stroke-width: 0px;
      }

      .cls-5, .cls-165, .cls-131 {
        fill: #373737;
      }

      .cls-6 {
        stroke-width: 0px;
      }

      .cls-6, .cls-166 {
        fill: #505050;
      }

      .cls-167, .cls-8, .cls-158 {
        fill: #111;
      }

      .cls-168, .cls-144 {
        fill: #4f4f4f;
      }

      .cls-7 {
        stroke-width: .05px;
      }

      .cls-7, .cls-39, .cls-169 {
        fill: #282828;
      }

      .cls-170 {
        fill: #7c7c7c;
      }

      .cls-8 {
        stroke-width: .09px;
      }

      .cls-171, .cls-54, .cls-105 {
        fill: #313131;
      }

      .cls-9 {
        stroke-width: .19px;
      }

      .cls-172, .cls-149 {
        fill: #434343;
      }

      .cls-173, .cls-92, .cls-99 {
        fill: #010101;
      }

      .cls-10 {
        stroke-width: .08px;
      }

      .cls-11 {
        stroke-width: .1px;
      }

      .cls-11, .cls-71, .cls-174 {
        fill: #0a0a0a;
      }

      .cls-12 {
        stroke-width: .02px;
      }

      .cls-12, .cls-175 {
        fill: #4a4a4a;
      }

      .cls-13 {
        stroke-width: .12px;
      }

      .cls-14 {
        stroke-width: .09px;
      }

      .cls-14, .cls-176, .cls-132 {
        fill: #1e1e1e;
      }

      .cls-15 {
        stroke-width: .14px;
      }

      .cls-15, .cls-151, .cls-177 {
        fill: #101010;
      }

      .cls-16 {
        stroke-width: .11px;
      }

      .cls-17 {
        stroke-width: .01px;
      }

      .cls-17, .cls-178 {
        fill: #4c4c4c;
      }

      .cls-179, .cls-98, .cls-135 {
        fill: #2c2c2c;
      }

      .cls-180, .cls-114, .cls-159 {
        fill: #141414;
      }

      .cls-181, .cls-26, .cls-88 {
        fill: #2a2a2a;
      }

      .cls-18 {
        stroke-width: .05px;
      }

      .cls-18, .cls-20, .cls-182 {
        fill: #323232;
      }

      .cls-19 {
        stroke-width: .22px;
      }

      .cls-20 {
        stroke-width: .02px;
      }

      .cls-21 {
        stroke-width: .03px;
      }

      .cls-21, .cls-183 {
        fill: #3e3e3e;
      }

      .cls-22 {
        stroke-width: .05px;
      }

      .cls-22, .cls-184, .cls-123 {
        fill: #2f2f2f;
      }

      .cls-23 {
        stroke-width: .07px;
      }

      .cls-23, .cls-185, .cls-153 {
        fill: #222;
      }

      .cls-24 {
        stroke-width: .14px;
      }

      .cls-24, .cls-186, .cls-122 {
        fill: #0f0f0f;
      }

      .cls-25 {
        stroke-width: .15px;
      }

      .cls-25, .cls-108, .cls-187 {
        fill: #0b0b0b;
      }

      .cls-26 {
        stroke-width: .05px;
      }

      .cls-27 {
        stroke-width: .1px;
      }

      .cls-27, .cls-188, .cls-146 {
        fill: #080808;
      }

      .cls-28 {
        stroke-width: .02px;
      }

      .cls-28, .cls-189 {
        fill: #444;
      }

      .cls-29 {
        stroke-width: .09px;
      }

      .cls-29, .cls-52, .cls-190 {
        fill: #0d0d0d;
      }

      .cls-191, .cls-100 {
        fill: #4e4e4e;
      }

      .cls-192, .cls-50, .cls-64 {
        fill: #121212;
      }

      .cls-30 {
        stroke-width: .16px;
      }

      .cls-30, .cls-193, .cls-141 {
        fill: #090909;
      }

      .cls-31 {
        stroke-width: .16px;
      }

      .cls-31, .cls-59, .cls-194 {
        fill: #070707;
      }

      .cls-32 {
        stroke-width: .03px;
      }

      .cls-32, .cls-195 {
        fill: #3f3f3f;
      }

      .cls-196, .cls-60, .cls-119 {
        fill: #272727;
      }

      .cls-33 {
        stroke-width: .04px;
      }

      .cls-33, .cls-90, .cls-197 {
        fill: #333;
      }

      .cls-34 {
        stroke-width: .08px;
      }

      .cls-34, .cls-75, .cls-198 {
        fill: #1f1f1f;
      }

      .cls-199, .cls-38 {
        fill: #494949;
      }

      .cls-35 {
        stroke-width: .06px;
      }

      .cls-35, .cls-65, .cls-200 {
        fill: #292929;
      }

      .cls-36 {
        stroke-width: .03px;
      }

      .cls-36, .cls-201 {
        fill: #404040;
      }

      .cls-37 {
        stroke-width: .11px;
      }

      .cls-38 {
        stroke-width: .02px;
      }

      .cls-202, .cls-87 {
        fill: #4d4d4d;
      }

      .cls-203, .cls-80, .cls-82 {
        fill: #0c0c0c;
      }

      .cls-204 {
        fill: #8f8f8f;
      }

      .cls-205, .cls-55, .cls-95 {
        fill: #020202;
      }

      .cls-39 {
        stroke-width: .06px;
      }

      .cls-40 {
        stroke-width: .05px;
      }

      .cls-40, .cls-206, .cls-86 {
        fill: #303030;
      }

      .cls-41 {
        stroke-width: .02px;
      }

      .cls-41, .cls-207 {
        fill: #474747;
      }

      .cls-208, .cls-79, .cls-124 {
        fill: #2d2d2d;
      }

      .cls-42 {
        stroke-width: .09px;
      }

      .cls-42, .cls-73, .cls-209 {
        fill: #1d1d1d;
      }

      .cls-43 {
        stroke-width: .04px;
      }

      .cls-43, .cls-125, .cls-210 {
        fill: #343434;
      }

      .cls-44, .cls-211 {
        fill: #545454;
      }

      .cls-212, .cls-84, .cls-155 {
        fill: #383838;
      }

      .cls-213, .cls-61, .cls-118 {
        fill: #131313;
      }

      .cls-214, .cls-128 {
        fill: #3c3c3c;
      }

      .cls-45 {
        stroke-width: .04px;
      }

      .cls-45, .cls-215, .cls-160 {
        fill: #363636;
      }

      .cls-46, .cls-216 {
        fill: #535353;
      }

      .cls-47 {
        stroke-width: .11px;
      }

      .cls-47, .cls-217, .cls-138 {
        fill: #191919;
      }

      .cls-48 {
        stroke-width: .07px;
      }

      .cls-48, .cls-70, .cls-218 {
        fill: #232323;
      }

      .cls-219, .cls-117 {
        fill: #424242;
      }

      .cls-49 {
        stroke-width: .2px;
      }

      .cls-220 {
        fill: #606060;
      }

      .cls-221, .cls-130, .cls-145 {
        fill: #050505;
      }

      .cls-50 {
        stroke-width: .13px;
      }

      .cls-51 {
        stroke-width: .08px;
      }

      .cls-51, .cls-222, .cls-154 {
        fill: #171717;
      }

      .cls-223, .cls-94, .cls-107 {
        fill: #060606;
      }

      .cls-52 {
        stroke-width: .15px;
      }

      .cls-53 {
        stroke-width: .14px;
      }

      .cls-54 {
        stroke-width: .03px;
      }

      .cls-55 {
        stroke-width: .18px;
      }

      .cls-56 {
        stroke-width: .02px;
      }

      .cls-56, .cls-224 {
        fill: #454545;
      }

      .cls-57 {
        stroke-width: .1px;
      }

      .cls-57, .cls-63, .cls-225 {
        fill: #1b1b1b;
      }

      .cls-58 {
        stroke-width: .14px;
      }

      .cls-58, .cls-226, .cls-127 {
        fill: #0e0e0e;
      }

      .cls-59 {
        stroke-width: .1px;
      }

      .cls-227, .cls-72, .cls-93, .cls-142 {
        fill: #1c1c1c;
      }

      .cls-60 {
        stroke-width: .06px;
      }

      .cls-61 {
        stroke-width: .13px;
      }

      .cls-62 {
        stroke-width: .07px;
      }

      .cls-62, .cls-120, .cls-228 {
        fill: #242424;
      }

      .cls-63 {
        stroke-width: .08px;
      }

      .cls-64 {
        stroke-width: .09px;
      }

      .cls-65 {
        stroke-width: .05px;
      }

      .cls-66 {
        stroke-width: .01px;
      }

      .cls-66, .cls-229 {
        fill: #4b4b4b;
      }

      .cls-67 {
        stroke-width: .12px;
      }

      .cls-67, .cls-116, .cls-230 {
        fill: #151515;
      }

      .cls-68 {
        stroke-width: .02px;
      }

      .cls-69 {
        stroke-width: .02px;
      }

      .cls-69, .cls-231 {
        fill: #484848;
      }

      .cls-70 {
        stroke-width: .07px;
      }

      .cls-71 {
        stroke-width: .16px;
      }

      .cls-72 {
        stroke-width: .07px;
      }

      .cls-73 {
        stroke-width: .07px;
      }

      .cls-74 {
        stroke-width: .08px;
      }

      .cls-74, .cls-232, .cls-152 {
        fill: #212121;
      }

      .cls-75 {
        stroke-width: .07px;
      }

      .cls-233 {
        fill: #737373;
      }

      .cls-76 {
        stroke-width: .1px;
      }

      .cls-76, .cls-96, .cls-234 {
        fill: #040404;
      }

      .cls-235, .cls-91 {
        fill: #3b3b3b;
      }

      .cls-77 {
        stroke-width: .04px;
      }

      .cls-77, .cls-115, .cls-236 {
        fill: #353535;
      }

      .cls-78 {
        stroke-width: .12px;
      }

      .cls-78, .cls-143, .cls-237 {
        fill: #161616;
      }

      .cls-79 {
        stroke-width: .05px;
      }

      .cls-80 {
        stroke-width: .15px;
      }

      .cls-81 {
        stroke-width: .05px;
      }

      .cls-81, .cls-89, .cls-238, .cls-110 {
        fill: #2b2b2b;
      }

      .cls-82 {
        stroke-width: .09px;
      }

      .cls-83 {
        stroke-width: .17px;
      }

      .cls-85 {
        fill: none;
        stroke-width: .25px;
      }

      .cls-239, .cls-150 {
        fill: #3a3a3a;
      }

      .cls-86 {
        stroke-width: .03px;
      }

      .cls-87 {
        stroke-width: .01px;
      }

      .cls-88 {
        stroke-width: .06px;
      }

      .cls-89 {
        stroke-width: .06px;
      }

      .cls-90 {
        stroke-width: .02px;
      }

      .cls-91 {
        stroke-width: .03px;
      }

      .cls-240, .cls-148, .cls-157 {
        fill: #202020;
      }

      .cls-92 {
        stroke-width: .11px;
      }

      .cls-93 {
        stroke-width: .1px;
      }

      .cls-94 {
        stroke-width: .1px;
      }

      .cls-95 {
        stroke-width: .11px;
      }

      .cls-96 {
        stroke-width: .17px;
      }

      .cls-97 {
        stroke-width: .18px;
      }

      .cls-98 {
        stroke-width: .04px;
      }

      .cls-99 {
        stroke-width: .18px;
      }

      .cls-241, .cls-109 {
        fill: #555;
      }

      .cls-100 {
        stroke-width: .01px;
      }

      .cls-101 {
        stroke-width: .03px;
      }

      .cls-101, .cls-242 {
        fill: #414141;
      }

      .cls-102 {
        stroke-width: .05px;
      }

      .cls-103 {
        stroke-width: .23px;
      }

      .cls-104 {
        stroke-width: .04px;
      }

      .cls-104, .cls-243 {
        fill: #393939;
      }

      .cls-105 {
        stroke-width: .05px;
      }

      .cls-106 {
        stroke-width: .03px;
      }

      .cls-106, .cls-244 {
        fill: #3d3d3d;
      }

      .cls-107 {
        stroke-width: .17px;
      }

      .cls-108 {
        stroke-width: .1px;
      }

      .cls-245, .cls-136, .cls-137 {
        fill: #030303;
      }

      .cls-246 {
        fill: #868686;
      }

      .cls-110 {
        stroke-width: .05px;
      }

      .cls-111 {
        stroke-width: 0px;
      }

      .cls-111, .cls-247 {
        fill: #515151;
      }

      .cls-112 {
        stroke-width: .03px;
      }

      .cls-113 {
        stroke-width: .04px;
      }

      .cls-113, .cls-147, .cls-248 {
        fill: #2e2e2e;
      }

      .cls-114 {
        stroke-width: .12px;
      }

      .cls-115 {
        stroke-width: .01px;
      }

      .cls-116 {
        stroke-width: .08px;
      }

      .cls-249, .cls-133, .cls-156 {
        fill: #1a1a1a;
      }

      .cls-250 {
        fill: #999;
      }

      .cls-117 {
        stroke-width: .03px;
      }

      .cls-118 {
        stroke-width: .09px;
      }

      .cls-119 {
        stroke-width: .06px;
      }

      .cls-120 {
        stroke-width: .06px;
      }

      .cls-121 {
        stroke-width: .09px;
      }

      .cls-122 {
        stroke-width: .09px;
      }

      .cls-123 {
        stroke-width: .03px;
      }

      .cls-124 {
        stroke-width: .04px;
      }

      .cls-125 {
        stroke-width: .02px;
      }

      .cls-126 {
        stroke-width: .16px;
      }

      .cls-127 {
        stroke-width: .09px;
      }

      .cls-128 {
        stroke-width: .03px;
      }

      .cls-251, .cls-140 {
        fill: #464646;
      }

      .cls-129 {
        stroke-width: .06px;
      }

      .cls-130 {
        stroke-width: .1px;
      }

      .cls-252 {
        fill: #696969;
      }

      .cls-131 {
        stroke-width: .04px;
      }

      .cls-132 {
        stroke-width: .07px;
      }

      .cls-133 {
        stroke-width: .08px;
      }

      .cls-134 {
        stroke-width: .08px;
      }

      .cls-135 {
        stroke-width: .05px;
      }

      .cls-136 {
        stroke-width: .18px;
      }

      .cls-137 {
        stroke-width: .11px;
      }

      .cls-138 {
        stroke-width: .08px;
      }

      .cls-139 {
        stroke-width: 0px;
      }

      .cls-253 {
        fill: #565656;
      }

      .cls-140 {
        stroke-width: .02px;
      }

      .cls-141 {
        stroke-width: .1px;
      }

      .cls-142 {
        stroke-width: .09px;
      }

      .cls-143 {
        stroke-width: .08px;
      }

      .cls-144 {
        stroke-width: 0px;
      }

      .cls-145 {
        stroke-width: .17px;
      }

      .cls-146 {
        stroke-width: .16px;
      }

      .cls-147 {
        stroke-width: .05px;
      }

      .cls-148 {
        stroke-width: .08px;
      }

      .cls-149 {
        stroke-width: .02px;
      }

      .cls-150 {
        stroke-width: .04px;
      }

      .cls-151 {
        stroke-width: .09px;
      }

      .cls-152 {
        stroke-width: .07px;
      }

      .cls-153 {
        stroke-width: .07px;
      }

      .cls-154 {
        stroke-width: .11px;
      }

      .cls-155 {
        stroke-width: .04px;
      }

      .cls-156 {
        stroke-width: .1px;
      }

      .cls-157 {
        stroke-width: .07px;
      }

      .cls-158 {
        stroke-width: .13px;
      }

      .cls-159 {
        stroke-width: .08px;
      }

      .cls-160 {
        stroke-width: 0px;
      }
    </style>
  </defs>
  <rect x="102.55" y="24.71" width="9.99" height="10.54"/>
  <rect class="cls-68" x="101.4" y="27.2" width="10.14" height="10.61"/>
  <rect class="cls-112" x="84.2" y="38.81" width="10.69" height="10.86"/>
  <rect class="cls-102" x="83.72" y="33.82" width="10.47" height="10.76"/>
  <rect class="cls-3" x="88.67" y="43.25" width="10.3" height="10.68"/>
  <rect class="cls-10" x="85.3" y="34.82" width="10.67" height="10.85"/>
  <rect class="cls-121" x="78.32" y="46.98" width="10.38" height="10.72"/>
  <rect class="cls-13" x="95.41" y="49.31" width="9.94" height="10.52"/>
  <rect class="cls-53" x="24.97" y="68.05" width="10.47" height="10.76"/>
  <rect class="cls-126" x="93.45" y="54.83" width="10.31" height="10.69"/>
  <rect class="cls-83" x="89.73" y="45.52" width="10" height="10.55"/>
  <rect class="cls-9" x="73.97" y="53" width="10.58" height="10.81"/>
  <rect class="cls-49" x="75.96" y="51.94" width="10.4" height="10.73"/>
  <rect class="cls-19" x="44.51" y="109.62" width="10.96" height="10.98"/>
  <rect class="cls-103" x="41.74" y="70.73" width="9.99" height="10.54"/>
  <rect class="cls-85" x="68.68" y="59.81" width="10.34" height="10.7"/>
  <rect class="cls-85" x="84.89" y="66.15" width="10.24" height="10.66"/>
  <rect class="cls-85" x="85.92" y="58.52" width="10.99" height="11"/>
  <rect class="cls-85" x="60.32" y="51.8" width="10.61" height="10.82"/>
  <rect class="cls-85" x="82.26" y="57.23" width="10.21" height="10.64"/>
  <rect class="cls-85" x="77.92" y="56.19" width="9.8" height="10.45"/>
  <rect class="cls-85" x="88.38" y="65.13" width="9.87" height="10.48"/>
  <rect class="cls-85" x="90.84" y="63.99" width="10.95" height="10.98"/>
  <rect class="cls-85" x="72.28" y="62.43" width="9.93" height="10.51"/>
  <rect class="cls-85" x="92.97" y="55.27" width="10.2" height="10.64"/>
  <rect class="cls-85" x="94.3" y="54.33" width="9.89" height="10.49"/>
  <rect class="cls-85" x="80.08" y="58.54" width="10.34" height="10.7"/>
  <rect class="cls-85" x="92.77" y="61.6" width="10.26" height="10.66"/>
  <rect class="cls-85" x="95.07" y="57.24" width="10.87" height="10.94"/>
  <rect class="cls-85" x="78.72" y="63.93" width="10.8" height="10.91"/>
  <rect x="81.78" y="64.61" width="10.59" height="10.81"/>
  <rect x="75.26" y="14.85" width="10.82" height="10.92"/>
  <rect x="72.85" y="45.93" width="10.46" height="10.75"/>
  <rect x="57.35" y="49.38" width="10.62" height="10.83"/>
  <rect x="67.83" y="35.36" width="10.17" height="10.62"/>
  <rect x="53.04" y="35.27" width="10.28" height="10.67"/>
  <rect x="52.26" y="32.15" width="9.96" height="10.53"/>
  <rect x="47.13" y="24.8" width="10.91" height="10.96"/>
  <rect x="33.59" y="28.94" width="10.8" height="10.91"/>
  <rect x="30.72" y="23.71" width="10.74" height="10.88"/>
  <rect x="25.64" y="19.47" width="10.26" height="10.67"/>
  <rect x="13.45" y="10.64" width="10.14" height="10.61"/>
  <rect x="27.55" y="16.29" width="10.62" height="10.83"/>
  <rect x="17.38" y="2.09" width="10.97" height="10.99"/>
  <rect x="10.19" y="2.71" width="9.94" height="10.52"/>
  <rect x="1.29" width="9.89" height="10.49"/>
  <rect class="cls-174" y="8.95" width="10.26" height="10.66"/>
  <rect class="cls-213" x="6.28" y="14.32" width="10.74" height="10.88"/>
  <rect class="cls-209" x=".88" y="19.33" width="10.5" height="10.77"/>
  <rect class="cls-161" x="26.94" y="35.6" width="9.8" height="10.46"/>
  <rect class="cls-206" x="27.46" y="45.08" width="10.97" height="10.99"/>
  <rect class="cls-172" x="23.18" y="53.26" width="10.29" height="10.68"/>
  <rect class="cls-202" x="16.98" y="62.53" width="10.54" height="10.79"/>
  <rect class="cls-220" x="20.03" y="77.84" width="10.44" height="10.75"/>
  <rect class="cls-252" x="44.03" y="89.77" width="9.79" height="10.45"/>
  <rect class="cls-233" x="23.77" y="96.75" width="9.92" height="10.51"/>
  <rect class="cls-170" x="43.33" y="104.23" width="10.05" height="10.57"/>
  <rect class="cls-246" x="37.94" y="109.1" width="10.91" height="10.96"/>
  <rect class="cls-204" x="54.53" y="118.9" width="9.85" height="10.48"/>
  <rect class="cls-250" x="55.67" y="122.68" width="10.99" height="10.99"/>
  <rect x="45.63" y="134.14" width="9.99" height="10.54"/>
  <rect class="cls-68" x="46.63" y="131.58" width="10.14" height="10.61"/>
  <rect class="cls-112" x="63.28" y="119.72" width="10.69" height="10.86"/>
  <rect class="cls-102" x="63.98" y="124.81" width="10.47" height="10.76"/>
  <rect class="cls-3" x="59.21" y="115.46" width="10.3" height="10.68"/>
  <rect class="cls-10" x="62.2" y="123.72" width="10.67" height="10.85"/>
  <rect class="cls-121" x="69.47" y="111.68" width="10.38" height="10.72"/>
  <rect class="cls-37" x="70.05" y="117.43" width="10.89" height="10.95"/>
  <rect class="cls-13" x="52.81" y="109.56" width="9.94" height="10.52"/>
  <rect class="cls-53" x="122.73" y="90.58" width="10.47" height="10.76"/>
  <rect class="cls-126" x="54.42" y="103.88" width="10.31" height="10.69"/>
  <rect class="cls-83" x="58.43" y="113.32" width="10" height="10.55"/>
  <g>
    <rect class="cls-85" x="89.52" y="58.93" width="10.13" height="10.6"/>
    <rect class="cls-85" x="85" y="71.44" width="10.06" height="10.57"/>
    <rect class="cls-85" x="80.49" y="83.94" width="9.99" height="10.54"/>
    <rect class="cls-85" x="75.97" y="96.45" width="9.93" height="10.51"/>
    <rect x="83.08" y="102.81" width="10.27" height="10.67"/>
    <rect x="90.2" y="109.18" width="10.62" height="10.83"/>
    <rect class="cls-173" x="89.51" y="108.81" width="10.62" height="10.83"/>
    <rect class="cls-205" x="88.82" y="108.43" width="10.62" height="10.83"/>
    <rect class="cls-245" x="88.14" y="108.06" width="10.62" height="10.83"/>
    <rect class="cls-234" x="87.45" y="107.69" width="10.62" height="10.83"/>
    <rect class="cls-221" x="86.76" y="107.32" width="10.62" height="10.83"/>
    <rect class="cls-223" x="86.08" y="106.95" width="10.62" height="10.83"/>
    <rect class="cls-194" x="85.39" y="106.58" width="10.62" height="10.83"/>
    <rect class="cls-188" x="84.7" y="106.2" width="10.62" height="10.83"/>
    <rect class="cls-193" x="84.01" y="105.83" width="10.62" height="10.83"/>
    <rect class="cls-174" x="83.33" y="105.46" width="10.62" height="10.83"/>
    <rect class="cls-187" x="82.64" y="105.09" width="10.62" height="10.83"/>
    <rect class="cls-203" x="81.95" y="104.72" width="10.62" height="10.83"/>
    <rect class="cls-190" x="81.26" y="104.35" width="10.62" height="10.83"/>
    <rect class="cls-226" x="80.58" y="103.98" width="10.62" height="10.83"/>
    <rect class="cls-186" x="79.89" y="103.6" width="10.62" height="10.83"/>
    <rect class="cls-177" x="79.2" y="103.23" width="10.62" height="10.83"/>
    <rect class="cls-167" x="78.52" y="102.86" width="10.62" height="10.83"/>
    <rect class="cls-192" x="77.83" y="102.49" width="10.62" height="10.83"/>
    <rect class="cls-213" x="77.14" y="102.12" width="10.62" height="10.83"/>
    <rect class="cls-180" x="76.45" y="101.75" width="10.62" height="10.83"/>
    <rect class="cls-230" x="75.77" y="101.37" width="10.62" height="10.83"/>
    <rect class="cls-237" x="75.08" y="101" width="10.62" height="10.83"/>
    <rect class="cls-222" x="74.39" y="100.63" width="10.63" height="10.83"/>
    <rect class="cls-163" x="73.71" y="100.26" width="10.63" height="10.83"/>
    <rect class="cls-217" x="73.02" y="99.89" width="10.63" height="10.83"/>
    <rect class="cls-249" x="72.33" y="99.52" width="10.63" height="10.83"/>
    <rect class="cls-225" x="71.64" y="99.14" width="10.63" height="10.83"/>
    <rect class="cls-227" x="70.96" y="98.77" width="10.63" height="10.83"/>
    <rect class="cls-209" x="70.27" y="98.4" width="10.63" height="10.83"/>
    <rect class="cls-176" x="69.58" y="98.03" width="10.63" height="10.83"/>
    <rect class="cls-198" x="68.89" y="97.66" width="10.63" height="10.83"/>
    <rect class="cls-240" x="68.21" y="97.29" width="10.63" height="10.83"/>
    <rect class="cls-232" x="67.52" y="96.92" width="10.63" height="10.83"/>
    <rect class="cls-185" x="66.83" y="96.54" width="10.63" height="10.83"/>
    <rect class="cls-218" x="66.15" y="96.17" width="10.63" height="10.83"/>
    <rect class="cls-228" x="65.46" y="95.8" width="10.63" height="10.83"/>
    <rect class="cls-164" x="64.77" y="95.43" width="10.63" height="10.83"/>
    <rect class="cls-161" x="64.08" y="95.06" width="10.63" height="10.83"/>
    <rect class="cls-196" x="63.4" y="94.69" width="10.63" height="10.83"/>
    <rect class="cls-169" x="62.71" y="94.31" width="10.63" height="10.83"/>
    <rect class="cls-200" x="62.02" y="93.94" width="10.63" height="10.83"/>
    <rect class="cls-181" x="61.33" y="93.57" width="10.63" height="10.83"/>
    <rect class="cls-238" x="60.65" y="93.2" width="10.63" height="10.83"/>
    <rect class="cls-238" x="59.96" y="92.83" width="10.63" height="10.83"/>
    <rect class="cls-179" x="59.27" y="92.46" width="10.63" height="10.83"/>
    <rect class="cls-208" x="58.59" y="92.09" width="10.63" height="10.83"/>
    <rect class="cls-248" x="57.9" y="91.71" width="10.63" height="10.83"/>
    <rect class="cls-184" x="57.21" y="91.34" width="10.63" height="10.83"/>
    <rect class="cls-206" x="56.52" y="90.97" width="10.63" height="10.83"/>
    <rect class="cls-171" x="55.84" y="90.6" width="10.63" height="10.83"/>
    <rect class="cls-182" x="55.15" y="90.23" width="10.63" height="10.83"/>
    <rect class="cls-197" x="54.46" y="89.86" width="10.63" height="10.83"/>
    <rect class="cls-210" x="53.77" y="89.48" width="10.63" height="10.83"/>
    <rect class="cls-236" x="53.09" y="89.11" width="10.63" height="10.83"/>
    <rect class="cls-215" x="52.4" y="88.74" width="10.63" height="10.83"/>
    <rect class="cls-165" x="51.71" y="88.37" width="10.63" height="10.83"/>
    <rect class="cls-212" x="51.03" y="88" width="10.63" height="10.83"/>
    <rect class="cls-243" x="50.34" y="87.63" width="10.63" height="10.83"/>
    <rect class="cls-239" x="49.65" y="87.26" width="10.63" height="10.83"/>
    <rect class="cls-235" x="48.96" y="86.88" width="10.63" height="10.83"/>
    <rect class="cls-214" x="48.28" y="86.51" width="10.63" height="10.83"/>
    <rect class="cls-244" x="47.59" y="86.14" width="10.63" height="10.83"/>
    <rect class="cls-183" x="46.9" y="85.77" width="10.63" height="10.83"/>
    <rect class="cls-195" x="46.22" y="85.4" width="10.63" height="10.83"/>
    <rect class="cls-201" x="45.53" y="85.03" width="10.63" height="10.83"/>
    <rect class="cls-242" x="44.84" y="84.65" width="10.63" height="10.83"/>
    <rect class="cls-219" x="44.15" y="84.28" width="10.63" height="10.83"/>
    <rect class="cls-172" x="43.47" y="83.91" width="10.63" height="10.83"/>
    <rect class="cls-189" x="42.78" y="83.54" width="10.63" height="10.83"/>
    <rect class="cls-224" x="42.09" y="83.17" width="10.63" height="10.83"/>
    <rect class="cls-251" x="41.4" y="82.8" width="10.63" height="10.83"/>
    <rect class="cls-207" x="40.72" y="82.43" width="10.63" height="10.83"/>
    <rect class="cls-231" x="40.03" y="82.05" width="10.63" height="10.83"/>
    <rect class="cls-199" x="39.34" y="81.68" width="10.63" height="10.83"/>
    <rect class="cls-175" x="38.66" y="81.31" width="10.63" height="10.83"/>
    <rect class="cls-229" x="37.97" y="80.94" width="10.63" height="10.83"/>
    <rect class="cls-178" x="37.28" y="80.57" width="10.63" height="10.83"/>
    <rect class="cls-202" x="36.59" y="80.2" width="10.64" height="10.83"/>
    <rect class="cls-191" x="35.91" y="79.82" width="10.64" height="10.83"/>
    <rect class="cls-168" x="35.22" y="79.45" width="10.64" height="10.83"/>
    <rect class="cls-166" x="34.53" y="79.08" width="10.64" height="10.83"/>
    <rect class="cls-247" x="33.84" y="78.71" width="10.64" height="10.83"/>
    <rect class="cls-162" x="33.16" y="78.34" width="10.64" height="10.83"/>
    <rect class="cls-216" x="32.47" y="77.97" width="10.64" height="10.83"/>
    <rect class="cls-211" x="31.78" y="77.59" width="10.64" height="10.83"/>
    <rect class="cls-241" x="31.1" y="77.22" width="10.64" height="10.83"/>
    <rect class="cls-253" x="30.41" y="76.85" width="10.64" height="10.83"/>
    <rect class="cls-109" x="30.95" y="76.44" width="10.64" height="10.84"/>
    <rect class="cls-44" x="31.48" y="76.03" width="10.64" height="10.84"/>
    <rect class="cls-46" x="32.02" y="75.62" width="10.65" height="10.84"/>
    <rect class="cls-139" x="32.56" y="75.2" width="10.65" height="10.84"/>
    <rect class="cls-111" x="33.1" y="74.79" width="10.65" height="10.84"/>
    <rect class="cls-6" x="33.64" y="74.38" width="10.65" height="10.84"/>
    <rect class="cls-144" x="34.18" y="73.97" width="10.66" height="10.84"/>
    <rect class="cls-100" x="34.71" y="73.56" width="10.66" height="10.85"/>
    <rect class="cls-87" x="35.25" y="73.14" width="10.66" height="10.85"/>
    <rect class="cls-17" x="35.79" y="72.73" width="10.67" height="10.85"/>
    <rect class="cls-66" x="36.33" y="72.32" width="10.67" height="10.85"/>
    <rect class="cls-12" x="36.87" y="71.91" width="10.67" height="10.85"/>
    <rect class="cls-38" x="37.4" y="71.5" width="10.67" height="10.85"/>
    <rect class="cls-69" x="37.94" y="71.08" width="10.68" height="10.85"/>
    <rect class="cls-41" x="38.48" y="70.67" width="10.68" height="10.85"/>
    <rect class="cls-140" x="39.02" y="70.26" width="10.68" height="10.86"/>
    <rect class="cls-56" x="39.56" y="69.85" width="10.69" height="10.86"/>
    <rect class="cls-28" x="40.1" y="69.44" width="10.69" height="10.86"/>
    <rect class="cls-149" x="40.63" y="69.02" width="10.69" height="10.86"/>
    <rect class="cls-117" x="41.17" y="68.61" width="10.69" height="10.86"/>
    <rect class="cls-101" x="41.71" y="68.2" width="10.7" height="10.86"/>
    <rect class="cls-36" x="42.25" y="67.79" width="10.7" height="10.86"/>
    <rect class="cls-32" x="42.79" y="67.38" width="10.7" height="10.86"/>
    <rect class="cls-21" x="43.33" y="66.96" width="10.71" height="10.87"/>
    <rect class="cls-106" x="43.86" y="66.55" width="10.71" height="10.87"/>
    <rect class="cls-128" x="44.4" y="66.14" width="10.71" height="10.87"/>
    <rect class="cls-91" x="44.94" y="65.73" width="10.71" height="10.87"/>
    <rect class="cls-150" x="45.48" y="65.32" width="10.72" height="10.87"/>
    <rect class="cls-104" x="46.02" y="64.9" width="10.72" height="10.87"/>
    <rect class="cls-155" x="46.55" y="64.49" width="10.72" height="10.87"/>
    <rect class="cls-131" x="47.09" y="64.08" width="10.73" height="10.88"/>
    <rect class="cls-45" x="47.63" y="63.67" width="10.73" height="10.88"/>
    <rect class="cls-77" x="48.17" y="63.26" width="10.73" height="10.88"/>
    <rect class="cls-43" x="48.71" y="62.84" width="10.73" height="10.88"/>
    <rect class="cls-33" x="49.25" y="62.43" width="10.74" height="10.88"/>
    <rect class="cls-18" x="49.78" y="62.02" width="10.74" height="10.88"/>
    <rect class="cls-105" x="50.32" y="61.61" width="10.74" height="10.88"/>
    <rect class="cls-40" x="50.86" y="61.2" width="10.75" height="10.88"/>
    <rect class="cls-22" x="51.4" y="60.78" width="10.75" height="10.89"/>
    <rect class="cls-147" x="51.94" y="60.37" width="10.75" height="10.89"/>
    <rect class="cls-79" x="52.47" y="59.96" width="10.75" height="10.89"/>
    <rect class="cls-135" x="53.01" y="59.55" width="10.76" height="10.89"/>
    <rect class="cls-110" x="53.55" y="59.14" width="10.76" height="10.89"/>
    <rect class="cls-89" x="54.09" y="58.72" width="10.76" height="10.89"/>
    <rect class="cls-88" x="54.63" y="58.31" width="10.77" height="10.89"/>
    <rect class="cls-35" x="55.17" y="57.9" width="10.77" height="10.9"/>
    <rect class="cls-39" x="55.7" y="57.49" width="10.77" height="10.9"/>
    <rect class="cls-60" x="56.24" y="57.08" width="10.77" height="10.9"/>
    <rect class="cls-1" x="56.78" y="56.66" width="10.78" height="10.9"/>
    <rect class="cls-4" x="57.32" y="56.25" width="10.78" height="10.9"/>
    <rect class="cls-120" x="57.86" y="55.84" width="10.78" height="10.9"/>
    <rect class="cls-70" x="58.4" y="55.43" width="10.79" height="10.9"/>
    <rect class="cls-153" x="58.93" y="55.02" width="10.79" height="10.9"/>
    <rect class="cls-152" x="59.47" y="54.6" width="10.79" height="10.91"/>
    <rect class="cls-157" x="60.01" y="54.19" width="10.8" height="10.91"/>
    <rect class="cls-75" x="60.55" y="53.78" width="10.8" height="10.91"/>
    <rect class="cls-132" x="61.09" y="53.37" width="10.8" height="10.91"/>
    <rect class="cls-73" x="61.62" y="52.96" width="10.8" height="10.91"/>
    <rect class="cls-72" x="62.16" y="52.54" width="10.81" height="10.91"/>
    <rect class="cls-63" x="62.7" y="52.13" width="10.81" height="10.91"/>
    <rect class="cls-133" x="63.24" y="51.72" width="10.81" height="10.91"/>
    <rect class="cls-138" x="63.78" y="51.31" width="10.82" height="10.92"/>
    <rect class="cls-134" x="64.32" y="50.9" width="10.82" height="10.92"/>
    <rect class="cls-51" x="64.85" y="50.48" width="10.82" height="10.92"/>
    <rect class="cls-143" x="65.39" y="50.07" width="10.82" height="10.92"/>
    <rect class="cls-116" x="65.93" y="49.66" width="10.83" height="10.92"/>
    <rect class="cls-159" x="66.47" y="49.25" width="10.83" height="10.92"/>
    <rect class="cls-118" x="67.01" y="48.84" width="10.83" height="10.92"/>
    <rect class="cls-64" x="67.54" y="48.42" width="10.84" height="10.93"/>
    <rect class="cls-8" x="68.08" y="48.01" width="10.84" height="10.93"/>
    <rect class="cls-151" x="68.62" y="47.6" width="10.84" height="10.93"/>
    <rect class="cls-122" x="69.16" y="47.19" width="10.84" height="10.93"/>
    <rect class="cls-127" x="69.7" y="46.78" width="10.85" height="10.93"/>
    <rect class="cls-29" x="70.24" y="46.36" width="10.85" height="10.93"/>
    <rect class="cls-82" x="70.77" y="45.95" width="10.85" height="10.93"/>
    <rect class="cls-108" x="71.31" y="45.54" width="10.86" height="10.93"/>
    <rect class="cls-11" x="71.85" y="45.13" width="10.86" height="10.94"/>
    <rect class="cls-141" x="72.39" y="44.72" width="10.86" height="10.94"/>
    <rect class="cls-27" x="72.93" y="44.3" width="10.86" height="10.94"/>
    <rect class="cls-59" x="73.47" y="43.89" width="10.87" height="10.94"/>
    <rect class="cls-94" x="74" y="43.48" width="10.87" height="10.94"/>
    <rect class="cls-130" x="74.54" y="43.07" width="10.87" height="10.94"/>
    <rect class="cls-76" x="75.08" y="42.66" width="10.88" height="10.94"/>
    <rect class="cls-137" x="75.62" y="42.24" width="10.88" height="10.94"/>
    <rect class="cls-95" x="76.16" y="41.83" width="10.88" height="10.95"/>
    <rect class="cls-92" x="76.69" y="41.42" width="10.88" height="10.95"/>
    <rect class="cls-37" x="77.23" y="41.01" width="10.89" height="10.95"/>
    <rect class="cls-97" x="83.07" y="49.03" width="10.49" height="10.77"/>
    <rect class="cls-85" x="88.91" y="57.04" width="10.09" height="10.59"/>
    <rect class="cls-243" x="78.65" y="54.92" width="10.21" height="10.64"/>
    <rect class="cls-243" x="68.4" y="52.79" width="10.33" height="10.7"/>
    <rect class="cls-243" x="58.15" y="50.66" width="10.46" height="10.75"/>
    <rect class="cls-243" x="47.89" y="48.54" width="10.58" height="10.81"/>
    <rect class="cls-243" x="37.64" y="46.41" width="10.7" height="10.86"/>
    <rect class="cls-243" x="27.38" y="44.28" width="10.82" height="10.92"/>
    <rect class="cls-84" x="28.18" y="45.34" width="10.82" height="10.92"/>
    <rect class="cls-5" x="28.98" y="46.4" width="10.81" height="10.92"/>
    <rect class="cls-160" x="29.78" y="47.45" width="10.81" height="10.91"/>
    <rect class="cls-115" x="30.57" y="48.51" width="10.81" height="10.91"/>
    <rect class="cls-125" x="31.37" y="49.57" width="10.8" height="10.91"/>
    <rect class="cls-90" x="32.17" y="50.62" width="10.8" height="10.91"/>
    <rect class="cls-20" x="32.96" y="51.68" width="10.79" height="10.91"/>
    <rect class="cls-54" x="33.76" y="52.74" width="10.79" height="10.9"/>
    <rect class="cls-86" x="34.56" y="53.79" width="10.78" height="10.9"/>
    <rect class="cls-123" x="35.36" y="54.85" width="10.78" height="10.9"/>
    <rect class="cls-113" x="36.15" y="55.91" width="10.78" height="10.9"/>
    <rect class="cls-124" x="36.95" y="56.96" width="10.77" height="10.9"/>
    <rect class="cls-98" x="37.75" y="58.02" width="10.77" height="10.89"/>
    <rect class="cls-81" x="38.55" y="59.08" width="10.76" height="10.89"/>
    <rect class="cls-26" x="39.34" y="60.14" width="10.76" height="10.89"/>
    <rect class="cls-65" x="40.14" y="61.19" width="10.76" height="10.89"/>
    <rect class="cls-7" x="40.94" y="62.25" width="10.75" height="10.89"/>
    <rect class="cls-119" x="41.73" y="63.31" width="10.75" height="10.88"/>
    <rect class="cls-2" x="42.53" y="64.36" width="10.74" height="10.88"/>
    <rect class="cls-129" x="43.33" y="65.42" width="10.74" height="10.88"/>
    <rect class="cls-62" x="44.13" y="66.48" width="10.73" height="10.88"/>
    <rect class="cls-48" x="44.92" y="67.53" width="10.73" height="10.88"/>
    <rect class="cls-23" x="45.72" y="68.59" width="10.73" height="10.88"/>
    <rect class="cls-74" x="46.52" y="69.65" width="10.72" height="10.87"/>
    <rect class="cls-148" x="47.31" y="70.7" width="10.72" height="10.87"/>
    <rect class="cls-34" x="48.11" y="71.76" width="10.71" height="10.87"/>
    <rect class="cls-14" x="48.91" y="72.82" width="10.71" height="10.87"/>
    <rect class="cls-42" x="49.71" y="73.87" width="10.7" height="10.87"/>
    <rect class="cls-142" x="50.5" y="74.93" width="10.7" height="10.86"/>
    <rect class="cls-93" x="51.3" y="75.99" width="10.7" height="10.86"/>
    <rect class="cls-57" x="52.1" y="77.05" width="10.69" height="10.86"/>
    <rect class="cls-156" x="52.9" y="78.1" width="10.69" height="10.86"/>
    <rect class="cls-47" x="53.69" y="79.16" width="10.68" height="10.86"/>
    <rect class="cls-16" x="54.49" y="80.22" width="10.68" height="10.85"/>
    <rect class="cls-154" x="55.29" y="81.27" width="10.67" height="10.85"/>
    <rect class="cls-78" x="56.08" y="82.33" width="10.67" height="10.85"/>
    <rect class="cls-67" x="56.88" y="83.39" width="10.67" height="10.85"/>
    <rect class="cls-114" x="57.68" y="84.44" width="10.66" height="10.85"/>
    <rect class="cls-61" x="58.48" y="85.5" width="10.66" height="10.84"/>
    <rect class="cls-50" x="59.27" y="86.56" width="10.65" height="10.84"/>
    <rect class="cls-158" x="60.07" y="87.61" width="10.65" height="10.84"/>
    <rect class="cls-15" x="60.87" y="88.67" width="10.64" height="10.84"/>
    <rect class="cls-24" x="61.66" y="89.73" width="10.64" height="10.84"/>
    <rect class="cls-58" x="62.46" y="90.79" width="10.64" height="10.83"/>
    <rect class="cls-52" x="63.26" y="91.84" width="10.63" height="10.83"/>
    <rect class="cls-80" x="64.06" y="92.9" width="10.63" height="10.83"/>
    <rect class="cls-25" x="64.85" y="93.96" width="10.62" height="10.83"/>
    <rect class="cls-71" x="65.65" y="95.01" width="10.62" height="10.83"/>
    <rect class="cls-30" x="66.45" y="96.07" width="10.61" height="10.82"/>
    <rect class="cls-146" x="67.25" y="97.13" width="10.61" height="10.82"/>
    <rect class="cls-31" x="68.04" y="98.18" width="10.61" height="10.82"/>
    <rect class="cls-107" x="68.84" y="99.24" width="10.6" height="10.82"/>
    <rect class="cls-145" x="69.64" y="100.3" width="10.6" height="10.82"/>
    <rect class="cls-96" x="70.43" y="101.35" width="10.59" height="10.82"/>
    <rect class="cls-136" x="71.23" y="102.41" width="10.59" height="10.81"/>
    <rect class="cls-55" x="72.03" y="103.47" width="10.59" height="10.81"/>
    <rect class="cls-99" x="72.83" y="104.52" width="10.58" height="10.81"/>
    <rect class="cls-9" x="73.62" y="105.58" width="10.58" height="10.81"/>
  </g>
  <rect class="cls-49" x="71.81" y="106.72" width="10.4" height="10.73"/>
  <rect class="cls-19" x="102.7" y="48.79" width="10.96" height="10.98"/>
  <rect class="cls-103" x="106.44" y="88.12" width="9.99" height="10.54"/>
  <rect class="cls-85" x="79.15" y="98.87" width="10.34" height="10.7"/>
  <rect class="cls-85" x="63.04" y="92.58" width="10.24" height="10.66"/>
  <rect class="cls-85" x="61.26" y="99.87" width="10.99" height="11"/>
  <rect class="cls-85" x="87.24" y="106.76" width="10.61" height="10.82"/>
  <rect class="cls-85" x="65.7" y="101.51" width="10.21" height="10.64"/>
  <rect class="cls-85" x="70.46" y="102.74" width="9.8" height="10.45"/>
  <rect class="cls-85" x="59.92" y="93.77" width="9.87" height="10.48"/>
  <rect class="cls-85" x="59.17" y="101.76" width="10.09" height="10.59"/>
  <rect class="cls-85" x="56.38" y="94.42" width="10.95" height="10.98"/>
  <rect class="cls-85" x="55" y="103.48" width="10.2" height="10.64"/>
  <rect class="cls-85" x="53.99" y="104.57" width="9.89" height="10.49"/>
  <rect class="cls-85" x="67.74" y="100.15" width="10.34" height="10.7"/>
  <rect class="cls-85" x="55.14" y="97.12" width="10.26" height="10.66"/>
  <rect class="cls-85" x="58.52" y="99.85" width="10.13" height="10.6"/>
  <rect class="cls-85" x="52.24" y="101.21" width="10.87" height="10.94"/>
  <rect class="cls-85" x="68.65" y="94.55" width="10.8" height="10.91"/>
  <rect x="65.8" y="93.96" width="10.59" height="10.81"/>
  <rect x="72.09" y="143.61" width="10.82" height="10.92"/>
  <rect x="74.86" y="112.71" width="10.46" height="10.75"/>
  <rect x="80.17" y="123.4" width="10.17" height="10.62"/>
  <rect x="94.85" y="123.44" width="10.28" height="10.67"/>
  <rect x="95.96" y="126.72" width="9.96" height="10.53"/>
  <rect x="100.13" y="133.63" width="10.91" height="10.96"/>
  <rect x="113.78" y="129.54" width="10.8" height="10.91"/>
  <rect x="116.71" y="134.79" width="10.74" height="10.88"/>
  <rect x="122.27" y="139.25" width="10.26" height="10.67"/>
  <rect x="134.58" y="148.14" width="10.14" height="10.61"/>
  <rect x="120" y="142.27" width="10.62" height="10.83"/>
  <rect x="129.82" y="156.31" width="10.97" height="10.99"/>
  <rect x="138.05" y="156.16" width="9.94" height="10.52"/>
  <rect x="146.99" y="158.89" width="9.89" height="10.49"/>
  <rect class="cls-174" x="147.91" y="149.77" width="10.26" height="10.66"/>
  <rect class="cls-213" x="141.15" y="144.19" width="10.74" height="10.88"/>
  <rect class="cls-209" x="146.79" y="139.28" width="10.5" height="10.77"/>
  <rect class="cls-161" x="121.43" y="123.33" width="9.8" height="10.46"/>
  <rect class="cls-206" x="119.74" y="113.33" width="10.97" height="10.99"/>
  <rect class="cls-243" x="119.96" y="114.19" width="10.82" height="10.92"/>
  <rect class="cls-172" x="124.7" y="105.45" width="10.29" height="10.68"/>
  <rect class="cls-202" x="130.65" y="96.07" width="10.54" height="10.79"/>
  <rect class="cls-253" x="117.13" y="81.7" width="10.64" height="10.83"/>
  <rect class="cls-220" x="127.7" y="80.81" width="10.44" height="10.75"/>
  <rect class="cls-252" x="104.35" y="69.16" width="9.79" height="10.45"/>
  <rect class="cls-233" x="124.48" y="62.13" width="9.92" height="10.51"/>
  <rect class="cls-170" x="104.79" y="54.59" width="10.05" height="10.57"/>
  <rect class="cls-246" x="109.33" y="49.33" width="10.91" height="10.96"/>
  <rect class="cls-204" x="93.79" y="40.01" width="9.85" height="10.48"/>
  <rect class="cls-250" x="91.51" y="35.71" width="10.99" height="10.99"/>
</svg>