<?xml version="1.0" encoding="UTF-8"?>
<svg id="Layer_1" xmlns="http://www.w3.org/2000/svg" viewBox="0 0 188.85 185.89">
  <defs>
    <style>
      .cls-1 {
        fill: #fff;
        stroke: #000;
        stroke-miterlimit: 10;
        stroke-width: .25px;
      }
    </style>
  </defs>
  <path class="cls-1" d="M32.26,40.99s-37,23,9,23,60-22,60-22l38,60s-107,63-52,10,62-15,62-15v7l-4,18s22,109-41,42-27-91-27-91l76-17s61-13,23,45S26.26,196.99,30.26,144.99s-10-107,35-111,106-68,111-9-34,45-34,45l-9-46,9.82,55.53,13.18,74.47,13-108s23,39,2,36-112-1-112-1l122,53-143,15L.26,83.99l65,18"/>
</svg>